<?xml version="1.0" encoding="UTF-8" standalone="no"?>
<svg width="120px" height="70px" viewBox="0 0 120 70" version="1.1" xmlns="http://www.w3.org/2000/svg" xmlns:xlink="http://www.w3.org/1999/xlink">
    <!-- Generator: Sketch 49.1 (51147) - http://www.bohemiancoding.com/sketch -->
    <title>Group</title>
    <desc>Created with Sketch.</desc>
    <defs></defs>
    <g id="Page-1" stroke="none" stroke-width="1" fill="none" fill-rule="evenodd">
        <g id="Group" fill="#F9F8F6">
            <path d="M115.169842,35.7275532 C113.296732,39.4375532 109.926243,42.6528369 109.892619,42.6841135 C109.409842,43.1420922 109.312362,43.7879787 109.644907,44.3243972 C109.671745,44.3660993 112.177863,48.5032979 108.766963,51.9593617 C105.735189,55.0316667 100.123261,55.2702128 98.4750352,55.2702128 C98.2399709,55.2702128 98.0971432,55.2652482 98.0780172,55.2642553 L98.0354465,55.2669858 C98.5789941,54.3485461 99.1614105,53.0781206 99.5707679,51.4010993 C100.203467,51.1503901 102.053441,50.3007092 103.486038,48.4270922 C103.621153,48.2510993 103.552979,48.0207447 103.33303,47.9125177 C103.115549,47.8037943 102.828968,47.8586525 102.693853,48.0351418 C101.733236,49.2906738 100.545884,50.0472695 99.7762177,50.4434397 C100.064033,48.8915248 100.19668,47.0479433 100.038429,44.8811702 C100.022696,44.6746454 99.7984285,44.5140426 99.5463977,44.5291844 C99.2897396,44.5408511 99.0944697,44.7185816 99.1089684,44.9246099 C99.530665,50.7006028 97.7979144,54.1236525 96.7213077,55.6591844 C96.5837242,55.7599645 96.4612563,55.8739007 96.3640841,56.0049645 C96.355138,56.0158865 95.5410506,57.0738298 94.426192,57.1381206 C92.6844954,57.238156 91.4527216,58.1786879 90.1472203,59.1768085 C89.0792511,59.992234 87.8678373,60.9168794 86.2088141,61.5039362 C83.6234157,62.4198936 80.7961663,62.5186879 79.7016676,62.5186879 C79.3021817,62.5186879 79.0575545,62.5070213 79.0310249,62.5042908 C78.5109221,62.4754965 78.0056265,62.6174823 77.6271175,62.9009574 C77.3908193,63.0769504 77.2189941,63.2961348 77.1221303,63.5386525 C76.9487627,63.7215957 76.1732357,64.4183688 73.4533386,65.7021986 C71.404701,66.6682979 68.9991483,66.8710993 67.3410506,66.8710993 C65.0672203,66.8710993 63.2083,66.4779078 62.6135442,66.1996454 C61.3228501,65.5927305 59.2230044,65.3628723 56.5663463,65.0719504 C54.3940069,64.8324113 51.9313848,64.5620922 49.601719,64.0512411 C45.5281972,63.1578723 44.3254208,62.3848936 44.3066033,62.3848936 L44.3066033,62.3866312 C44.0317447,62.1341844 43.6637242,61.981773 43.269791,61.9189716 C41.857246,60.5792908 40.2873745,58.4120213 39.4338013,54.9802837 C39.383827,54.777234 39.1370404,54.6461702 38.8871689,54.6866312 C38.635138,54.7275887 38.4719504,54.9246809 38.5225416,55.1274823 C39.3313848,58.3797518 40.7460892,60.5552128 42.1185314,61.9924468 C41.2825416,62.162234 38.7085571,62.6370922 36.1166805,62.6370922 C34.5502023,62.6370922 33.2792511,62.4665603 32.340845,62.1307092 C31.7183257,61.9080496 31.1707679,61.6225887 30.6898424,61.3065957 C30.6873745,61.1529433 30.6429529,60.9985461 30.5201766,60.8664894 C30.1697396,60.4894326 22.1420789,51.6120922 31.8981715,43.0306383 C33.0225931,43.6646099 35.5040326,44.748617 39.9458835,45.29 C37.95339,46.0739007 34.9450609,47.8795035 33.4837756,51.8158865 C32.6712306,51.2834397 32.1634671,50.7924468 32.1523617,50.7810284 C31.9885571,50.620922 31.6951895,50.5978369 31.4974517,50.7289007 C31.2990969,50.8599645 31.2688655,51.0952837 31.4317447,51.2556383 C31.4922074,51.3149645 32.2427473,52.0380496 33.4066547,52.7137234 C33.4412049,52.7415248 33.4800738,52.7631206 33.5248038,52.7814894 C34.5693283,53.3702837 35.9238784,53.9049645 37.416629,53.9049645 C37.5705622,53.9049645 37.7278887,53.8997518 37.8852152,53.8875887 C38.1406393,53.868227 38.3294311,53.684539 38.3047524,53.4790071 C38.2800738,53.2729787 38.0613591,53.1287589 37.7969889,53.1414184 C36.4995082,53.2441844 35.2621817,52.8100355 34.27812,52.2872695 C36.1447524,46.859539 41.0974517,45.6437234 41.9309735,45.478156 C42.8147781,45.5434397 43.7451637,45.5930851 44.7603823,45.6102128 C44.9334414,45.6131915 45.1043411,45.6141844 45.2749324,45.6141844 C51.9637756,45.6141844 54.7743668,43.3697163 55.8990969,41.9012057 C56.2359607,43.1870213 56.4771946,45.6869149 54.1462948,47.7280851 C53.9723103,47.8807447 53.9846496,48.117305 54.1740583,48.2578014 C54.26321,48.3233333 54.3761149,48.3560993 54.4899452,48.3560993 C54.614881,48.3560993 54.7398167,48.3153901 54.8314362,48.2349645 C58.0458321,45.4200709 56.9547267,41.9443972 56.5762177,41.0075887 C57.7132871,41.1036525 60.5852666,41.0870213 64.8441869,39.2414539 C65.5123617,38.9520213 66.1944182,38.642234 66.8835699,38.3269858 C71.7363206,36.1195035 76.7525673,33.8320922 80.8541612,36.8577305 C81.0426445,36.9974823 81.3384799,36.9885461 81.5112306,36.8348936 C81.6855236,36.682234 81.6719504,36.4456738 81.4822332,36.3061702 C76.8852152,32.9139007 71.3263463,35.4438298 66.4251637,37.6761348 C65.7412563,37.9876596 65.0650609,38.2952128 64.4021303,38.5826596 C59.2899452,40.7978369 56.2917961,40.2202128 56.2640326,40.2142553 C56.1455751,40.1891844 56.0163206,40.2025887 55.906809,40.2537234 C55.7997653,40.3051064 55.721719,40.3892553 55.6914877,40.4868085 C55.6347267,40.6717376 54.1330301,45.0234043 44.7795082,44.8618085 C43.8133386,44.8456738 42.9283,44.7985106 42.0861406,44.7367021 C42.0222846,44.7208156 41.9565776,44.7146099 41.8874774,44.7230496 C36.3899966,44.2948582 33.5047524,43.0162411 32.386809,42.3835106 C32.4213591,42.1737589 32.3612049,41.9550709 32.1791997,41.7855319 C32.0767833,41.6899645 29.691282,39.3812057 32.3389941,34.3354965 C34.8858321,29.4814184 40.9759092,28.7002482 41.2325673,28.6697163 C41.5481457,28.632234 41.8193026,28.4669149 41.9488655,28.2330851 C41.9834157,28.1705319 45.4769889,21.9663475 50.8627987,21.5178014 C51.2061406,21.4895035 51.5019761,21.309539 51.6312306,21.0518794 C51.6571432,20.9985106 54.3572974,15.7140071 60.4590969,15.8634397 C60.8989941,15.8989362 61.3271689,15.6052837 61.4052152,15.2354255 C61.4110763,15.2110993 61.9644954,12.764078 65.7622332,10.0137234 C69.2770918,7.4679078 74.423827,6.80216312 78.1071175,7.25195035 C79.0600224,7.7672695 79.6310249,8.2912766 79.6402794,8.29847518 C79.9749838,8.61943262 80.4626959,8.81329787 80.9834157,8.83141844 C81.5022846,8.85375887 82.0122074,8.69092199 82.380228,8.39404255 C82.9697396,7.91992908 83.9368347,7.65829787 85.1019761,7.65829787 C86.3692254,7.65829787 87.6614619,7.98049645 88.3934928,8.47843972 C90.1484542,9.67340426 91.9626445,9.8091844 93.8838784,9.95265957 C94.8324645,10.0236525 95.8128244,10.0968794 96.9554465,10.2959574 C99.0799709,10.6680496 100.905267,13.278156 101.376321,14.1606028 L101.397297,14.1871631 C101.870511,15.7725887 102.337863,18.3926241 101.599354,21.3646454 C101.549071,21.5681915 101.71195,21.7652837 101.96429,21.8054965 C101.995447,21.810461 102.025678,21.812695 102.055909,21.812695 C102.27339,21.812695 102.467426,21.6898227 102.511848,21.5123404 C103.149174,18.9479078 102.939405,16.6592553 102.568917,15.0033333 C102.788866,15.055461 103.017452,15.085 103.256218,15.0676241 C105.553801,14.9000709 107.239354,15.335461 108.479148,16.3916667 C111.119765,18.6420922 110.851076,22.9299645 110.848917,22.9701773 C110.802027,23.5743617 111.213853,24.1413121 111.890974,24.4074113 C117.06794,26.4401418 116.925112,32.2501418 115.169842,35.7275532 Z M25.3965776,56.9660993 C25.3688141,56.9737943 22.5113334,57.7512411 19.6819247,57.7512411 C19.1062948,57.7512411 18.5692254,57.7179787 18.0873745,57.6544326 C15.7354979,57.3381915 15.1552409,55.6217021 15.1015648,55.4429787 C15.0256779,55.1624823 14.8550866,54.9159929 14.6209478,54.7216312 C16.3021817,53.5840071 17.8988913,51.5455674 17.4768861,47.9934397 C17.8331843,48.0584752 18.2169375,48.1006738 18.6441869,48.1006738 C19.112773,48.1006738 19.6260892,48.0552482 20.1862948,47.9507447 C20.4361663,47.9045745 20.5922589,47.7035106 20.534264,47.5019504 C20.4762691,47.3003901 20.2285571,47.1732979 19.9762177,47.2217021 C16.3959607,47.8874468 15.2064491,45.7807447 15.1574002,45.6908865 C15.0559092,45.5019858 14.7835185,45.4165957 14.5472203,45.4957801 C14.3118475,45.5769504 14.202336,45.7956383 14.3016676,45.9855319 C14.3118475,46.0034043 14.9374517,47.1219149 16.5141098,47.7241135 C17.0777087,51.3750355 15.429791,53.3206383 13.8127216,54.3264539 C13.5952409,54.2748227 13.362336,54.253227 13.121102,54.2691135 C13.0933386,54.2708511 13.011899,54.274078 12.8848038,54.274078 L12.8835699,54.274078 C11.6394568,54.274078 7.37189896,53.9533688 4.6961149,49.8260993 C1.70598637,45.2132979 6.38876272,38.0159574 7.05940539,37.0317376 C7.68192467,38.3230142 8.63143624,39.6706383 10.0806907,40.6915957 C10.168917,40.7534043 10.27812,40.7844326 10.3876316,40.7844326 C10.5168861,40.7844326 10.6452152,40.7404965 10.7380686,40.6565957 C10.9065005,40.5007092 10.8864491,40.2636525 10.6945725,40.1281206 C8.87698894,38.8482624 7.90835141,36.9515603 7.39195038,35.4038652 C7.52336426,33.454539 8.72953392,32.6326596 9.78948251,32.2893617 C9.82650051,32.2915957 9.86321002,32.2968085 9.90115346,32.2915957 C10.7500995,32.1662411 13.0924131,32.0207801 14.2091226,32.6957092 C13.4872717,33.7012766 13.8164234,34.6020922 13.8219761,34.6159929 C13.8842897,34.7748582 14.0675288,34.8768794 14.2646496,34.8768794 C14.3118475,34.8768794 14.358737,34.8704255 14.405318,34.8590071 C14.6508707,34.7959574 14.7859864,34.585461 14.7088655,34.3883688 C14.7020789,34.3734752 14.1387884,32.854078 16.9493797,31.7601418 C17.1801252,31.6707801 17.2772974,31.446383 17.165935,31.260461 C17.054264,31.0742908 16.7763206,30.9973404 16.5443411,31.0862057 C15.7543154,31.3937589 15.1910249,31.7397872 14.7767319,32.091773 C14.1754979,31.7301064 13.3799195,31.553617 12.5945211,31.4803901 C12.8968347,31.1606738 13.0375031,30.7806383 12.9603823,30.3797518 C12.9582229,30.3643617 12.8289684,28.7824113 14.7344697,24.2939716 C16.5085571,20.1125887 23.1316933,19.1812411 23.1943154,19.1732979 C23.5055751,19.1333333 23.7878373,19.0206383 24.0278373,18.8642553 C26.3741612,19.2579433 29.5126702,20.1736525 31.7463977,22.3036879 C31.8389427,22.3918085 31.9694311,22.437234 32.1023874,22.437234 C32.2081972,22.437234 32.3152409,22.4079433 32.4025416,22.3488652 C32.5978116,22.2155674 32.6243411,21.9792553 32.4580686,21.821383 C30.1607936,19.6300355 27.0571432,18.6443262 24.6201252,18.1955319 C24.7863977,17.8286525 24.779611,17.4153546 24.5834157,17.0561702 C24.5275802,16.9541489 23.2600224,14.5036525 27.2703051,10.6712766 C29.7403308,8.31187943 33.7188398,7.81641844 36.6219761,7.81641844 C38.5959607,7.81641844 40.0341098,8.04975177 40.0442897,8.05198582 C40.8096368,8.1808156 41.6073745,7.89163121 42.0201252,7.35968085 C42.0883,7.27230496 43.7439298,5.20953901 48.281719,5.20953901 L48.5988398,5.21251773 C49.3126702,5.22765957 49.9709735,5.23560284 50.5870146,5.23560284 C52.6344182,5.23560284 54.2545725,5.13382979 55.7886599,4.9248227 C53.4824388,6.02521277 51.0210506,7.65060284 49.3092769,9.96035461 C47.1906136,9.56170213 45.3486599,10.0693262 45.2335956,10.1030851 C44.9914362,10.1725887 44.8652666,10.3868085 44.9513334,10.5806738 C45.0383257,10.7755319 45.3026959,10.877305 45.5470146,10.807305 C45.6485056,10.7795035 47.2698938,10.3374113 49.1207936,10.6946099 C49.1553437,10.7288652 49.1966805,10.7598936 49.2481972,10.7827305 C49.3194568,10.815 49.3975031,10.8298936 49.47339,10.8298936 C49.5159607,10.8298936 49.5526702,10.812766 49.592773,10.804078 C50.3997653,11.019539 51.2286599,11.3958511 51.9782743,12.0424823 C52.0686599,12.1211702 52.1935956,12.161383 52.3176059,12.161383 C52.4311278,12.161383 52.5452666,12.1281206 52.6356522,12.0606028 C52.8229015,11.9193617 52.8330815,11.6828014 52.657863,11.5318794 C51.891282,10.8710993 51.0556008,10.4478723 50.2310249,10.1859929 C54.106192,5.15343972 62.0601252,3.59656028 62.1427987,3.58092199 C62.2788398,3.55535461 62.3827987,3.48262411 62.4438784,3.39053191 C62.6095339,3.34287234 62.7576059,3.30216312 62.9285056,3.2522695 C63.5152409,3.08173759 64.1309735,2.99560284 64.7627473,2.99560284 C68.4448038,2.99560284 71.7539041,5.82638298 71.7841355,5.85244681 C71.8267062,5.88992908 71.8809992,5.91698582 71.9281972,5.95074468 C69.3628501,6.39109929 66.7250095,7.30109929 64.5171946,8.89992908 C61.3391997,11.2009929 60.1734414,13.3441844 59.7674774,14.3696099 C54.6170404,14.5401418 51.706192,17.7737943 50.5243925,19.4751418 C49.8605365,18.6986879 48.4014105,17.4476241 45.6006907,16.9139362 C45.3495853,16.8685106 45.0997139,16.9916312 45.0404851,17.1921986 C44.9803308,17.3932624 45.1354979,17.5953191 45.3853694,17.6424823 C48.2484028,18.1885816 49.5070146,19.5344681 49.9364234,20.1252482 C44.6746239,20.9674823 41.3161663,25.8689716 40.4591997,27.2647518 C38.7400224,27.5680851 33.1688141,28.904539 30.623827,33.753156 C28.2361663,38.3053901 29.497246,41.0860284 30.2993026,42.2109929 C24.3724131,47.5625177 24.7194568,53.0858156 26.1532871,56.8921277 C25.9000224,56.8754965 25.6421303,56.8988298 25.3965776,56.9660993 Z M114.572927,22.1818085 C114.514932,20.4429787 114.03339,16.770461 111.196886,14.3455319 C109.423107,12.8283688 107.077709,12.0526596 104.225781,12.0392553 C103.23956,10.5727305 101.053956,7.9477305 97.7467062,7.36911348 C96.38321,7.13131206 95.2371946,7.04567376 94.2275288,6.97021277 C92.4926188,6.83989362 91.6233128,6.75326241 90.7978116,6.19177305 C89.3917447,5.23460993 87.2619761,4.66269504 85.1019761,4.66269504 C83.6625931,4.66269504 82.3370404,4.91762411 81.2311278,5.39546099 C79.8620789,4.48198582 77.4574517,3.25897163 74.3871175,3.25897163 C74.2007936,3.25897163 74.0120018,3.26294326 73.8247524,3.27212766 C72.3866033,2.20996454 68.8998167,0 64.7627473,0 C63.6994054,0 62.6573488,0.145957447 61.6640326,0.434893617 C56.1033128,2.05060284 54.3100995,2.33382979 48.6947781,2.21840426 L48.281719,2.21393617 C43.5656265,2.21393617 40.8775031,3.90039007 39.6460378,4.97248227 C38.9016676,4.89702128 37.8485056,4.8208156 36.6219761,4.8208156 C32.9291226,4.8208156 27.8144697,5.50095745 24.4226959,8.74156028 C20.9248038,12.0846809 20.4839812,14.8923759 20.6872717,16.5974468 C17.9346753,17.2865248 13.0140583,19.0789716 11.2109735,23.3261348 C9.97148765,26.2485106 9.49272158,28.1347872 9.32213033,29.2855674 C8.25323572,29.5258511 6.8820275,30.0156028 5.73138482,31.01 C4.34012518,32.2129078 3.64295295,33.8214184 3.65405835,35.7975532 C2.43338997,37.6317021 -2.32434782,45.4746809 1.39565218,51.2119504 C4.56439254,56.0987943 9.56737454,57.0671277 11.9852666,57.2366667 C12.6916933,58.4316312 14.2560121,60.1771631 17.4750352,60.6080851 C18.1586342,60.6996809 18.9020789,60.7463475 19.6819247,60.7463475 C21.6768861,60.7463475 23.6215648,60.4464894 24.9415648,60.1826241 C25.8330815,61.5865957 27.6395596,63.7270567 30.8292769,64.8674113 C32.2461406,65.3755319 34.0257807,65.6312057 36.1166805,65.6312057 C38.7076316,65.6312057 41.2069632,65.2407447 42.5022846,65.0002128 C43.4885056,65.5048582 45.3162691,66.2157801 48.62321,66.9413475 C51.1873231,67.5033333 53.7770404,67.7887943 56.06321,68.0392553 C57.9486599,68.2465248 60.0852152,68.4810993 60.7379658,68.7871631 C62.1353951,69.4424823 64.7269632,69.8664539 67.3410506,69.8664539 C69.4600224,69.8664539 72.5673745,69.5934043 75.336629,68.2862411 C77.8223874,67.113617 79.1824902,66.2130496 79.9191483,65.5137943 C81.6259864,65.4993972 84.724701,65.3028014 87.7083514,64.2460993 C89.9608964,63.4487943 91.4848038,62.2851064 92.7100995,61.3487943 C93.4464491,60.7868085 94.2799709,60.1493617 94.6917961,60.1250355 C96.7345725,60.0083688 98.146192,58.9983333 98.9149324,58.2610993 C101.408403,58.2119504 107.864341,57.6901773 111.682439,53.8220567 C115.451488,50.0030851 114.249637,45.7469858 113.444187,43.9071277 C114.640485,42.6647518 117.052207,39.9575887 118.618686,36.8547518 C120.657452,32.816844 121.216115,25.4961348 114.572927,22.1818085 Z" id="Fill-1333"></path>
            <path d="M47.5153728,28.6789007 C47.612545,28.6789007 47.7106427,28.6545745 47.7945501,28.6041844 C47.824473,28.5850709 50.9552699,26.7260993 54.4229306,27.5005674 C54.5713111,27.5345745 54.7344987,27.5040426 54.8517224,27.4223759 C54.9698715,27.3397163 55.0291003,27.2153546 55.0078149,27.0909929 C54.9763496,26.8976241 54.3035476,22.3307447 59.7183548,20.152305 C59.9484833,20.0599645 60.0419537,19.8348227 59.925964,19.6498936 C59.8121337,19.465461 59.5320308,19.39 59.3034447,19.4825887 C54.4164524,21.4482979 54.0203599,25.2672695 54.0481234,26.6632979 C50.4219023,26.1191844 47.3716195,27.9232979 47.2352699,28.0049645 C47.0301285,28.1288298 46.9887918,28.3634043 47.1427249,28.5299645 C47.2343445,28.627766 47.3737789,28.6789007 47.5153728,28.6789007" id="Fill-1334"></path>
            <path d="M86.0838046,40.8405319 C85.893162,40.9792908 85.8774293,41.2158511 86.0501799,41.3695035 C87.9729563,43.0815248 88.2820566,44.9032624 86.9194859,46.4981206 C85.0516195,48.6874823 80.64,49.8442199 77.6699229,48.9230496 C72.0330077,47.1782624 67.2999486,47.7491844 65.3160925,50.4116667 C63.6012339,52.7104965 58.8984062,53.0562766 58.8515167,53.0597518 C58.6192288,53.0751418 58.4375321,53.2255674 58.4255013,53.4117376 C58.4230334,53.4390426 58.1842674,56.1424823 53.6063753,57.0636525 C48.9704884,57.9922695 45.9032391,55.5996099 45.776144,55.4973404 C45.5941388,55.3518794 45.2995373,55.3523759 45.1175321,55.4983333 C44.9367609,55.6450355 44.9367609,55.8815957 45.1175321,56.0275532 C45.2372237,56.1241135 47.6560411,58.0275177 51.4775321,58.0275177 C52.2117224,58.0275177 52.9992802,57.9572695 53.8315681,57.7894681 C58.1552699,56.920922 59.0979949,54.6220922 59.3000514,53.7719149 C60.5308997,53.6378723 64.4369152,53.0453546 66.1138303,50.7964184 C67.8487404,48.4670567 72.1514653,48.0172695 77.33491,49.6220567 C80.7269923,50.6720567 85.5649357,49.4098227 87.6869923,46.921844 C88.6312596,45.8162411 89.7621594,43.5596099 86.7411825,40.8670922 C86.5678149,40.7144326 86.2744473,40.7022695 86.0838046,40.8405319" id="Fill-1335"></path>
            <path d="M62.1911568,46.6095745 C62.2590231,46.6378723 62.3327506,46.6515248 62.4052442,46.6515248 C62.5736761,46.6515248 62.7353213,46.5780496 62.8179949,46.4502128 C62.8448329,46.4080142 65.4869923,42.4562411 72.0373265,42.0347518 C71.8701285,42.731773 71.8389717,43.5174113 72.0866838,44.3658511 C72.1369666,44.538617 72.3276093,44.654539 72.5386118,44.654539 C72.5743959,44.654539 72.6111054,44.6518085 72.6456555,44.6446099 C72.8967609,44.5974468 73.051928,44.3958865 72.9926992,44.1943262 C72.7471465,43.3563121 72.820874,42.5778723 73.0315681,41.9054255 C73.1423136,41.8344326 73.2157326,41.7294326 73.2111054,41.607305 C73.208946,41.5683333 73.1944473,41.5328369 73.1802571,41.4978369 C73.6719794,40.3175177 74.5221594,39.5537234 74.5357326,39.5415603 C74.7087918,39.3889007 74.6964524,39.151844 74.5076607,39.0125887 C74.3204113,38.8733333 74.0258098,38.8820213 73.8515167,39.0336879 C73.7858098,39.0910284 72.8332134,39.9436879 72.2850386,41.2697163 C64.9928021,41.6060638 62.1131105,45.9172695 61.9924936,46.1049291 C61.874036,46.288617 61.9631877,46.5142553 62.1911568,46.6095745" id="Fill-1336"></path>
            <path d="M80.7279177,17.0549291 C81.6231362,16.9337943 82.623856,17.012234 83.6893573,17.4831206 C83.9136247,17.5826596 84.1968123,17.516383 84.3220566,17.3354255 C84.4445244,17.1539716 84.3633933,16.9263475 84.137892,16.8268085 C79.7037532,14.8643262 76.1333676,18.5547163 76.099126,18.5924468 C75.9427249,18.756773 75.9819023,18.9910993 76.1861183,19.1162057 C76.2706427,19.1683333 76.3699743,19.1924113 76.468072,19.1924113 C76.6087404,19.1924113 76.7469409,19.142766 76.8385604,19.0459574 C76.9156812,18.9650355 78.0761954,17.7747872 79.8222108,17.2478014 C82.024473,21.0680142 78.7422108,23.6810993 78.1274036,24.1214539 C77.7501285,23.9536525 77.3339846,23.7888298 76.8508997,23.6314539 C70.8937789,21.6893262 66.7298715,26.1978723 63.9717224,29.1813121 C63.0064781,30.2258511 62.1720308,31.1284043 61.5205141,31.4915603 C59.0255013,32.8811348 53.8596401,32.1049291 53.8084319,32.0977305 C53.5628792,32.0585106 53.3262725,32.1833688 53.2670437,32.3774823 C53.2537789,32.4226596 51.8433933,36.9428723 47.0646787,37.2501773 C42.3359383,37.5515248 41.1735733,35.2606383 41.1266838,35.1606028 C41.0350643,34.9684752 40.7685347,34.873156 40.5273008,34.9429078 C40.2863753,35.0156383 40.1648329,35.2310993 40.2552185,35.4249645 C40.3076607,35.5376596 41.5249357,38.0273759 46.2166581,38.0273759 C46.5103342,38.0273759 46.8182005,38.0179433 47.1384062,37.9973404 C51.7530077,37.6999645 53.5872494,34.0306738 54.0493573,32.889078 C55.3992802,33.0561348 59.6526478,33.4426241 62.0501799,32.1071631 C62.8281748,31.6740071 63.6626221,30.7712057 64.7194859,29.6281206 C67.4609769,26.6632979 71.2186118,22.5998227 76.5004627,24.3254965 C79.1870437,25.2014894 80.335527,26.3852837 79.7318252,27.6589362 C79.1191774,28.9517021 76.7617481,30.0101418 75.3834447,29.6167021 C75.1425193,29.5447163 74.8759897,29.6479787 74.7899229,29.8433333 C74.7029306,30.037695 74.8291003,30.2524113 75.0712596,30.3214184 C76.9489974,30.8632979 79.7941388,29.6301064 80.6020566,27.9260284 C80.9077635,27.2791489 81.2202571,25.8359574 78.9405656,24.5270567 C79.9369666,23.727766 82.8601542,20.9208156 80.7279177,17.0549291" id="Fill-1337"></path>
            <path d="M79.9425193,57.386844 C77.7979434,57.5452128 75.2140874,56.7526241 75.1881748,56.7449291 C74.9941388,56.6841135 74.7744987,56.7362411 74.649563,56.8692908 C71.7417995,59.9872695 67.642365,59.8760638 67.597018,59.8812766 C67.3354242,59.8678723 67.1238046,60.0321986 67.1114653,60.2387234 C67.0994344,60.4452482 67.2977892,60.6192553 67.5532134,60.6301773 C67.5711054,60.6301773 67.6192288,60.6319149 67.6994344,60.6319149 C68.4950129,60.6319149 72.2773265,60.4713121 75.1829306,57.5380142 C75.9883805,57.7581915 78.1240103,58.2670567 80.0264267,58.1322695 C80.2830848,58.1136525 80.4703342,57.9312057 80.4481234,57.7256738 C80.4246787,57.5201418 80.188072,57.3664894 79.9425193,57.386844" id="Fill-1338"></path>
            <path d="M95.5351157,23.9558865 C96.4568638,23.352695 97.9419023,22.2590071 98.7988689,20.9952837 C98.9216452,20.8135816 98.8389717,20.5864539 98.6137789,20.4871631 C98.3870437,20.3888652 98.1047815,20.4553901 97.9823136,20.6363475 C96.8106941,22.3654965 94.2222108,23.8215957 94.1966067,23.8364894 C94.0392802,23.9241135 93.9643188,24.0797518 94.0078149,24.2291844 C94.0503856,24.3788652 94.2030848,24.4918085 94.3915681,24.5148936 C96.536144,24.7732979 98.9025193,26.0715248 100.421183,27.8220213 C101.593728,29.1738652 102.832596,31.4103901 102.070334,34.3861348 C100.969049,38.6908865 96.2908997,40.3957092 94.4696144,40.9048227 C94.5723393,39.372766 94.9998972,38.2562411 95.0073008,38.2366312 C95.0856555,38.039539 94.9496144,37.8292908 94.7052956,37.7664894 C94.4631362,37.7066667 94.1996915,37.8126596 94.1216452,38.0095035 C94.0846272,38.1008511 93.5796401,39.4229078 93.5179434,41.1907801 C93.4087404,41.2786525 93.3495116,41.4045035 93.387455,41.5345745 C93.406581,41.6010993 93.4599486,41.6490071 93.5136247,41.6954255 C93.5312082,42.8022695 93.737892,44.0416667 94.339126,45.2515248 C94.411928,45.3984752 94.586838,45.486844 94.7710026,45.486844 C94.8277635,45.486844 94.8869923,45.478156 94.9437532,45.4597872 C95.1828278,45.3825887 95.2988175,45.1653901 95.2028792,44.9732624 C94.6562468,43.8721277 94.4683805,42.7268085 94.4532648,41.6969149 C96.1533162,41.2625177 101.716504,39.4839716 102.981902,34.5375532 C103.811105,31.300922 102.461799,28.8665603 101.18437,27.3930851 C99.7329563,25.7205319 97.6374293,24.4587943 95.5351157,23.9558865" id="Fill-1339"></path>
            <path d="M98.7754242,33.3095745 C99.0107969,33.2308865 99.1212339,33.0161702 99.0265296,32.8262766 C98.9305913,32.6356383 98.6569666,32.5435461 98.4240617,32.6165248 C98.3996915,32.6234752 96.0441131,33.3038652 91.2074036,30.6575177 C89.1988689,29.5591135 87.4093573,29.1649291 85.8873008,29.4826596 C84.2180977,29.833156 83.5264781,30.9198936 83.4974807,30.9663121 C83.3824165,31.1514894 83.4765039,31.376383 83.70509,31.4687234 C83.9395373,31.5630496 84.2147044,31.4863475 84.3297686,31.3014184 C84.3343959,31.2927305 84.8575835,30.4730851 86.1217481,30.2077305 C87.3769666,29.9438652 88.9088946,30.3047872 90.6842159,31.2765957 C94.0099743,33.096844 96.2986118,33.4503191 97.5726478,33.4503191 C98.33491,33.4503191 98.7340874,33.323227 98.7754242,33.3095745" id="Fill-1340"></path>
            <path d="M91.1022108,14.8623404 C91.1238046,15.0388298 91.302108,15.1783333 91.5208226,15.1974468 C91.5430334,15.1999291 93.8014396,15.4342553 95.9059126,18.8198227 C95.9870437,18.9518794 96.1520823,19.0273404 96.322982,19.0273404 C96.3923907,19.0273404 96.4636504,19.0144326 96.5305913,18.9878723 C96.7604113,18.8950355 96.8529563,18.6703901 96.7382005,18.485461 C94.8691003,15.4774468 92.8173779,14.7089362 91.9829306,14.5158156 C91.6457584,12.8477305 90.1573265,11.0371631 90.0916195,10.9564894 C89.9497172,10.7837234 89.6606684,10.7378014 89.446581,10.8524823 C89.2324936,10.9674113 89.1741902,11.1997518 89.317018,11.3720213 C89.3327506,11.3906383 90.9094087,13.3086879 91.1022108,14.8623404" id="Fill-1341"></path>
            <path d="M68.6076093,16.3246454 C68.6745501,16.3514539 68.7461183,16.3643617 68.8164524,16.3643617 C68.9870437,16.3643617 69.1499229,16.2891489 69.2325964,16.1588298 C69.3195887,16.0193262 71.4416452,12.7499291 76.606581,13.3652837 C76.8653985,13.3898582 77.0973779,13.254078 77.1353213,13.0502837 C77.1732648,12.8454965 76.9971208,12.6546099 76.7435476,12.624078 C70.8860668,11.9297872 68.4249871,15.7835106 68.4,15.8229787 C68.2861697,16.0076596 68.3790231,16.2315603 68.6076093,16.3246454" id="Fill-1342"></path>
            <path d="M87.7326478,49.2760284 C87.4784576,49.3015957 87.2976864,49.4887589 87.3300771,49.6942908 C87.3365553,49.7409574 88.0173779,54.4205319 83.9003599,57.6144681 C83.7161954,57.7589362 83.7103342,57.9959929 83.888946,58.1441844 C83.9805656,58.2203901 84.102108,58.2581206 84.2248843,58.2581206 C84.340874,58.2581206 84.4556298,58.2241135 84.5472494,58.1538652 C89.0069923,54.6933333 88.2860668,49.8059929 88.2527506,49.5992199 C88.2203599,49.3949291 87.9914653,49.2477305 87.7326478,49.2760284" id="Fill-1343"></path>
            <path d="M111.664473,33.7797163 C111.114447,33.9512411 110.641542,34.1528014 110.201954,34.3625532 C111.951362,28.3135106 108.487095,25.4956383 108.331003,25.3730142 C108.147763,25.229539 107.853162,25.2335106 107.672391,25.3812057 C107.494087,25.5293972 107.497481,25.7664539 107.682571,25.910922 C107.718355,25.9392199 111.242776,28.7965603 109.035887,35.016383 C107.674859,35.9201773 107.103239,36.8237234 107.069923,36.8798227 C106.959794,37.0662411 107.056658,37.2898936 107.289871,37.3790071 C107.354653,37.4038298 107.422828,37.4157447 107.48946,37.4157447 C107.663753,37.4157447 107.829717,37.337305 107.910231,37.202766 C107.920103,37.1851418 109.002571,35.4125532 112.000411,34.478227 C112.240411,34.4037589 112.359794,34.1870567 112.267249,33.9944326 C112.17347,33.8013121 111.906941,33.7069858 111.664473,33.7797163" id="Fill-1344"></path>
            <path d="M26.9308997,28.3696099 C33.2372237,25.1076596 36.7884833,23.0885816 36.4494602,19.5391844 C36.267455,17.6375177 37.0988175,15.7921986 38.5190746,14.9462411 C39.4007198,14.4207447 40.4517224,14.3274113 41.5551671,14.6746809 C41.7936247,14.7511348 42.0647815,14.6550709 42.157635,14.4624468 C42.2523393,14.2698227 42.1329563,14.0521277 41.8941902,13.9771631 C40.4773265,13.5310993 39.1172237,13.6584397 37.9656555,14.3442908 C36.2720823,15.3530851 35.3123907,17.4143617 35.5221594,19.5965248 C35.8056555,22.5638298 32.9682262,24.356773 26.4277635,27.7401064 C19.6852442,31.227695 22.0272494,36.9796099 22.0506941,37.0369504 C22.117635,37.1928369 22.2971722,37.2911348 22.4902828,37.2911348 C22.5405656,37.2911348 22.5917738,37.2844326 22.6411311,37.2712766 C22.8842159,37.205 23.0147044,36.9920213 22.9320308,36.795922 C22.8428792,36.582695 20.8099743,31.5359929 26.9308997,28.3696099" id="Fill-1345"></path>
            <path d="M33.1823136,13.4102128 C33.1891003,13.3846454 33.9343959,10.8604255 36.9081748,10.0631206 C37.1524936,9.99758865 37.2839075,9.78585106 37.2024679,9.58950355 C37.1201028,9.3929078 36.8600514,9.28890071 36.6132648,9.35244681 C33.7403599,10.1231915 32.6726992,12.2080496 32.3713111,12.9671277 C30.6687918,13.103156 29.6153213,14.1720213 29.5687404,14.2204255 C29.4114139,14.3837589 29.4481234,14.6178369 29.6498715,14.7451773 C29.7350129,14.7982979 29.8352699,14.8243617 29.9367609,14.8243617 C30.074036,14.8243617 30.2113111,14.7752128 30.3026221,14.6811348 C30.3128021,14.6712057 31.2798972,13.7018794 32.7282262,13.7018794 C32.9460154,13.7018794 33.1344987,13.5812411 33.1823136,13.4102128" id="Fill-1346"></path>
            <path d="M18.0206684,38.8653901 C15.1533162,40.6300355 16.2990231,43.4963121 16.311054,43.5251064 C16.3758355,43.6812411 16.5578406,43.7810284 16.7518766,43.7810284 C16.8,43.7810284 16.8502828,43.7745745 16.8980977,43.7611702 C17.1424165,43.6966312 17.2741388,43.4851418 17.1939332,43.2890426 C17.1547558,43.1919858 16.2521337,40.8961348 18.5861183,39.4606383 C18.7906427,39.334539 18.8295116,39.0992199 18.673419,38.9351418 C18.5182519,38.7725532 18.2261183,38.7400355 18.0206684,38.8653901" id="Fill-1347"></path>
        </g>
    </g>
</svg>